PathFileType	4	(x/y/z)	S09_M20_T18
DataRate	CameraRate	NumFrames	NumMarkers	Units	OrigDataRate	OrigDataStartFrame	OrigNumFrames
240	240	4	51	mm	240	140	558
Frame#	Time	Sternum			R.Acromium			L.Acromium			Top.Head			R.ASIS			L.ASIS			R.PSIS			L.PSIS			R.Great.Tro			L.Great.Tro			R.Iliac.Crest			L.Iliac.Crest			V.Sacral			R.Thigh.Upper.Post			R.Thigh.Lower.Ant			R.Thigh.Lower.Post			R.Thigh.Upper.Ant			R.Knee.Lat			R.Knee.Med			R.Shank.Upper.Post			R.Shank.Lower.Ant			R.Shank.Lower.Post			R.Shank.Upper.Ant			R.Ankle.Lat			R.Ankle.Med			R.Heel.Upper			R.Heel.Med			R.Heel.Lat			R.Toe.Lat			R.Toe.Med			R.Toe.Tip			L.Thigh.Upper.Post			L.Thigh.Lower.Ant			L.Thigh.Lower.Post			L.Thigh.Upper.Ant			L.Knee.Lat			L.Knee.Med			L.Shank.Upper.Post			L.Shank.Lower.Ant			L.Shank.Lower.Post			L.Shank.Upper.Ant			L.Ankle.Lat			L.Ankle.Med			L.Heel.Upper			L.Heel.Med			L.Heel.Lat			L.Toe.Lat			L.Toe.Med			L.Toe.Tip			Cervical.Spine			Back			
		X1	Y1	Z1	X2	Y2	Z2	X3	Y3	Z3	X4	Y4	Z4	X5	Y5	Z5	X6	Y6	Z6	X7	Y7	Z7	X8	Y8	Z8	X9	Y9	Z9	X10	Y10	Z10	X11	Y11	Z11	X12	Y12	Z12	X13	Y13	Z13	X14	Y14	Z14	X15	Y15	Z15	X16	Y16	Z16	X17	Y17	Z17	X18	Y18	Z18	X19	Y19	Z19	X20	Y20	Z20	X21	Y21	Z21	X22	Y22	Z22	X23	Y23	Z23	X24	Y24	Z24	X25	Y25	Z25	X26	Y26	Z26	X27	Y27	Z27	X28	Y28	Z28	X29	Y29	Z29	X30	Y30	Z30	X31	Y31	Z31	X32	Y32	Z32	X33	Y33	Z33	X34	Y34	Z34	X35	Y35	Z35	X36	Y36	Z36	X37	Y37	Z37	X38	Y38	Z38	X39	Y39	Z39	X40	Y40	Z40	X41	Y41	Z41	X42	Y42	Z42	X43	Y43	Z43	X44	Y44	Z44	X45	Y45	Z45	X46	Y46	Z46	X47	Y47	Z47	X48	Y48	Z48	X49	Y49	Z49	X50	Y50	Z50	X51	Y51	Z51	

140	0.57917	-157.44	1186.3	239.87	-302.13	1426	385.6	-285.97	1429.9	74.598	-279.65	1729.6	230.08	-199.88	1016.8	341.95	-200.63	1015.6	95.611	-421.08	1033.4	267.46	-413	1042.6	178.86	-272.16	929.54	418.41	-275.33	926.12	28.982	-291.95	1092.7	388.04	-306.51	1111.2	61.767	-436.26	1003.3	216.36	-169.54	697.13	407.26	-61.69	636.25	368.7	-135.2	611.14	384.42	-101.29	715.55	391.86	-54.896	555.95	369.33	-54.509	539.76	244.94	-96.507	372.98	380.95	-17.498	326.16	381.79	-84.324	297.31	375.02	-35.852	398.04	388.91	-18.442	115.55	371.98	18.866	135.04	288.81	-64.952	76.636	309.74	-40.037	51.091	284.01	-58.253	47.255	345.7	86.752	80.592	423.61	144.42	106.48	330.07	175.76	134.02	380.8	-369.14	678.29	91.022	-300.58	572.13	97.049	-368.11	588.83	113.04	-302.19	658.16	70.519	-327.12	495.93	110.39	-308.18	511.38	243.17	-402.24	373.09	103.68	-359.37	273.26	124.37	-418.39	298.63	114.65	-343.82	349.09	114.28	-445.02	105.62	147.33	-436	97.81	241.65	-523.67	75.37	197.1	-513.41	48.592	228.93	-524.24	47.915	167.98	-350.82	42.009	114.99	-313.37	38.31	225.35	-262.49	53.615	165.84	-373.33	1477.7	236.54	-418.35	1209.9	215.68
141	0.58333	-152.61	1185.2	239.89	-297.04	1425.1	385.89	-280.93	1429.1	74.867	-274.36	1728.7	230.55	-194.56	1015.9	341.89	-196.23	1015	95.531	-416.02	1032.6	268.3	-408.29	1042	179.68	-266.83	928.46	418.53	-271.47	925.69	29.067	-286.51	1091.8	388.33	-302.29	1110.6	62.167	-431.45	1002.6	217.23	-164.61	695.98	407.22	-56.745	635.19	368.56	-130.25	610.03	384.25	-96.374	714.45	391.8	-49.359	555.54	369.09	-49.378	539.02	244.47	-86.508	372.05	381.49	-6.476	327.01	381.68	-72.567	296.67	375.64	-26.411	398.47	388.73	-2.2587	116.28	372.53	33.682	136.5	289.05	-48.53	76.045	310.96	-23.182	51.091	285.05	-40.671	46.966	346.93	104.2	84.079	423.34	160.25	111.21	329.17	191.35	139.66	379.51	-366.37	678.33	91.27	-298.26	571.84	96.958	-365.76	588.85	113.19	-299.58	657.88	70.541	-325.25	495.7	110.33	-305.67	510.93	243.02	-400.95	373.18	103.7	-358.51	273.13	124.27	-417.43	298.8	114.69	-342.62	348.9	114.18	-444.84	105.77	147.41	-435.75	97.931	241.72	-523.61	75.453	197.2	-513.36	48.632	229	-524.19	48.026	168.05	-350.79	41.976	114.97	-313.3	38.246	225.32	-262.4	53.426	165.78	-368.21	1477	236.85	-413.62	1209.2	216.1
142	0.5875	-147.78	1184.1	239.93	-291.95	1424.2	386.2	-275.88	1428.2	75.148	-269.07	1727.9	231.02	-189.21	1015	341.83	-191.8	1014.3	95.448	-410.94	1031.9	269.14	-403.54	1041.4	180.5	-261.48	927.32	418.65	-267.57	925.25	29.155	-281.05	1090.9	388.62	-298.05	1109.9	62.574	-426.6	1002	218.1	-159.69	694.77	407.21	-51.811	634.06	368.46	-125.32	608.87	384.1	-91.458	713.29	391.78	-43.856	555.08	368.87	-44.269	538.22	244.03	-76.566	371.2	382.03	4.422	327.92	381.55	-60.895	296.13	376.25	-17.06	398.93	388.55	13.744	117.2	373.05	48.312	138.1	289.27	-32.266	75.655	312.13	-6.4962	51.292	286.06	-23.258	46.902	348.11	121.38	87.763	423.04	175.79	116.08	328.25	206.63	145.43	378.21	-363.57	678.37	91.526	-295.94	571.56	96.867	-363.38	588.88	113.34	-296.94	657.6	70.565	-323.37	495.47	110.27	-303.14	510.47	242.86	-399.65	373.27	103.72	-357.65	273	124.18	-416.47	298.97	114.73	-341.42	348.71	114.07	-444.66	105.93	147.49	-435.49	98.059	241.79	-523.56	75.543	197.3	-513.3	48.676	229.08	-524.14	48.146	168.13	-350.76	41.943	114.96	-313.23	38.18	225.28	-262.31	53.229	165.71	-363.09	1476.2	237.17	-408.87	1208.5	216.54
143	0.59167	-142.92	1183	239.98	-286.85	1423.3	386.51	-270.83	1427.3	75.441	-263.78	1727	231.5	-183.84	1014	341.77	-187.32	1013.6	95.362	-405.83	1031.1	269.99	-398.77	1040.7	181.32	-256.1	926.15	418.75	-263.64	924.79	29.246	-275.55	1089.9	388.93	-293.79	1109.3	62.988	-421.73	1001.3	218.98	-154.77	693.53	407.23	-46.879	632.87	368.42	-120.4	607.66	383.97	-86.535	712.07	391.81	-38.381	554.57	368.7	-39.18	537.37	243.62	-66.69	370.4	382.57	15.189	328.89	381.41	-49.32	295.69	376.86	-7.8049	399.41	388.36	29.55	118.29	373.54	62.748	139.83	289.47	-16.169	75.461	313.26	10.008	51.686	287.01	-6.0318	47.054	349.24	138.27	91.623	422.71	191.05	121.05	327.31	221.6	151.29	376.89	-360.75	678.42	91.79	-293.61	571.27	96.779	-360.99	588.9	113.5	-294.3	657.33	70.592	-321.49	495.25	110.21	-300.59	510.02	242.69	-398.35	373.37	103.75	-356.78	272.89	124.08	-415.5	299.15	114.79	-340.21	348.53	113.95	-444.48	106.1	147.58	-435.22	98.196	241.86	-523.5	75.639	197.42	-513.23	48.724	229.16	-524.09	48.276	168.21	-350.72	41.908	114.95	-313.15	38.113	225.24	-262.21	53.022	165.65	-357.97	1475.4	237.5	-404.11	1207.8	217
